<svg width="48.999999999999986" height="47.99999999999999" xmlns="http://www.w3.org/2000/svg" xmlns:svg="http://www.w3.org/2000/svg">
 <!-- Created with SVG-edit - http://svg-edit.googlecode.com/ -->
 <g stroke="null">
  <title>Layer 1</title>
  <g id="svg_18" stroke="null"/>
  <g stroke="null" transform="translate(1.8984375,1.265625) " id="svg_19">
   <polygon stroke="#000000" stroke-width="0" points="5.253632173538932,10.784785802974518 6.434433992891485,6.40341145606471 12.165735553018436,7.728396994923408 14.527074261966419,12.928660189402429 10.255164503875704,14.817614518654757 5.253632173538932,10.784785802974518 " fill="#bc0505" id="svg_16"/>
   <polygon stroke="#000000" stroke-width="0" points="6.067697665221573,11.095607759226034 5.011393908162489,6.4299022813730815 10.72112433696114,4.999291054688918 15.306237838632825,8.78083131525387 12.4302661951821,12.54856254230959 6.067697665221573,11.095607759226034 " fill="#bc0505" id="svg_3"/>
   <polygon stroke="null" fill="#FF0000" id="svg_6"/>
   <polygon stroke="null" fill="#FF0000" id="svg_7"/>
   <polygon stroke="null" fill="#FF0000" id="svg_8"/>
   <path stroke="#000000" fill="#3f3f3f" stroke-width="0" stroke-dasharray="null" stroke-linejoin="null" stroke-linecap="null" d="m1.45328,8.00377c-1.00217,-2.97417 -2.00435,-5.94835 -3.00654,-8.92253l9.16374,2.36568l-6.15723,6.55687l0.00004,-0.00004l-0.00001,0.00001l-0.00001,0.00001z" id="svg_15"/>
   <rect stroke="#000000" id="svg_4" transform="matrix(0.33385620004904787,0.29533902789819494,-0.32095730494036684,0.33618659059260514,14.849493315540041,-27.7719406646683) " height="19.59358" width="113.77708" y="57.46343" x="36.30996" stroke-width="0" fill="#bc0505"/>
   <rect stroke="#000000" transform="matrix(0.345015479996819,0.3089714899102916,-0.3396284446074068,0.34629410962565316,15.99048431630224,-28.265210523136567) " id="svg_1" height="15.83891" width="111.62373" y="57.35869" x="35.01241" stroke-width="0" fill="#FF0000"/>
   <polygon stroke="#000000" stroke-width="0" points="8.99873341039941,4.378475047676893 21.941974753033065,15.500080454294569 42.632918251049006,33.769990892016615 42.47738728038715,33.939817747624495 21.69032244958251,15.774871103415883 8.99873341039941,4.378475047676893 " fill="#ffffff" id="svg_5"/>
   <ellipse stroke="#000000" transform="matrix(0.3516920337366552,-0.3615089570559975,0.359082349111622,0.3412667128954736,-38.72774752737925,15.616407731810753) " ry="3.41602" rx="9.20558" id="svg_13" cy="151.7915" cx="78.70997" stroke-linecap="null" stroke-linejoin="null" stroke-dasharray="null" stroke-width="0" fill="#d30404"/>
   <ellipse stroke="#000000" opacity="0.2" transform="matrix(0.26940945593553556,-0.2377728435531723,-0.11913615591522235,0.606828281373104,17.767108065314925,-26.71254920011766) " ry="2.55171" rx="6.83087" id="svg_17" cy="176.22699" cx="174.63058" stroke-linecap="null" stroke-linejoin="null" stroke-dasharray="null" stroke-width="0" fill="#ffffff"/>
   <polygon stroke="#000000" opacity="0.55" id="svg_12" stroke-width="0" points="8.965565581066159,5.329888555034991 21.968565787161907,16.30587979349037 42.30565086614027,34.18451994575833 41.87162367040358,34.25816353694598 21.266335059446902,16.42502076965605 8.965565581066159,5.329888555034991 " fill="#ffffff"/>
   <polygon stroke="#000000" opacity="0.55" stroke-width="0" points="4.977682026649433,9.120801565919699 17.980686533552927,20.0967958149405 38.317766451561994,37.97543080623917 37.883739255825304,38.049074397426814 17.27844720422243,20.21593679110618 4.977682026649433,9.120801565919699 " fill="#000000" id="svg_14"/>
   <polygon stroke="#000000" stroke-width="0" points="6.6187537104401315,2.5746238118500813 5.896590889228634,2.8222712031280324 0.9435566174339272,0.8582940136440769 -1.3954221920452312,-0.6031552948176042 2.1120441490091935,0.4575938308873191 6.6187537104401315,2.5746238118500813 " fill="#7f00ff" id="svg_9" opacity="0.35"/>
   <ellipse stroke="#000000" opacity="0.95" transform="matrix(0.20229861886672287,0.2097177138255385,-1.2667173988208278,1.1504662153982745,75.44200685951661,-83.35380711157458) " ry="2.55171" rx="6.83087" cy="65.47341" cx="60.30851" stroke-linecap="null" stroke-linejoin="null" stroke-dasharray="null" stroke-width="0" fill="#ff0000" id="svg_2"/>
   <ellipse stroke="#000000" opacity="0.5" transform="matrix(0.5040211814842014,0.44446136310184237,-0.3117974239939119,-0.019247764393813982,8.280562289940661,-27.616212714841033) " ry="2.55171" rx="6.83087" cy="123.6733" cx="86.54061" stroke-linecap="null" stroke-linejoin="null" stroke-dasharray="null" stroke-width="0" fill="#ff0000" id="svg_11"/>
   <rect stroke="#000000" transform="matrix(0.718557679271646,-0.7206094389213611,0.7206094389213611,0.718557679271646,-8.828628856997664,2.0682585998978853) " id="svg_10" height="1.5432" width="8.87273" y="10.8871" x="2.99799" opacity="0.95" stroke-linecap="null" stroke-linejoin="null" stroke-dasharray="null" stroke-width="0" fill="#ff0000"/>
  </g>
 </g>
</svg>