<svg width="48.99999999999999" height="48" xmlns="http://www.w3.org/2000/svg" xmlns:svg="http://www.w3.org/2000/svg">
 <!-- Created with SVG-edit - http://svg-edit.googlecode.com/ -->
 <g stroke="null">
  <title>Layer 1</title>
  <polygon stroke-width="0" points="7.632847418469243,12.788042291634424 0.8215998965243505,12.05986947616138 1.767833132043467,5.4430518139487685 9.163890194738048,2.0818083027229886 12.788670807390151,6.621257227143969 7.632847418469243,12.788042291634424 " fill="#bc0505" id="svg_3" transform="rotate(83.53520202636719 6.805135250091553,7.434925079345704) " stroke="#000000"/>
  <polygon fill="#FF0000" id="svg_6" stroke="null" transform="rotate(-27.906286239624023 -7.2395620346069265,13.841280937194826) "/>
  <polygon fill="#FF0000" id="svg_7" stroke="null" transform="rotate(-27.906286239624023 -7.2395620346069265,13.841280937194826) "/>
  <polygon fill="#FF0000" id="svg_8" stroke="null" transform="rotate(-27.906286239624023 -7.2395620346069265,13.841280937194826) "/>
  <rect id="svg_4" transform="rotate(-27.906286239624023 24.289474487304673,22.76146697998047) matrix(0.16002179344064274,0.42580344232271344,-0.45001987835976043,0.14988755421459493,40.28394624781576,-24.198702951658937) " height="19.59358" width="113.77708" y="56.64477" x="30.00932" stroke-width="0" fill="#bc0505" stroke="#000000"/>
  <rect transform="rotate(-27.906286239624023 24.65790367126465,22.49496459960937) matrix(0.16064555576969583,0.43548780143220917,-0.46323996147376395,0.14739775194338642,41.10685479006563,-24.115584312085584) " id="svg_1" height="15.83891" width="111.62373" y="57.07689" x="29.21976" stroke-width="0" fill="#FF0000" stroke="#000000"/>
  <polygon stroke="#000000" stroke-width="0" points="17.629357932825492,-1.886884531029235 23.990061145280784,14.324916997901429 33.923707360858266,40.68376461600445 33.70233024132853,40.76264111136578 23.631870131920955,14.452541509620179 17.629357932825492,-1.886884531029235 " fill="#ffffff" id="svg_5" transform="rotate(-27.906286239624023 25.776533126831048,19.4378776550293) "/>
  <ellipse transform="rotate(-27.906286239624023 44.06389617919923,39.47474670410156) matrix(0.4898319764756675,-0.15804448983854952,0.1608354622607627,0.47927108338567287,-18.564740165242238,-17.80405618260201) " ry="3.41602" rx="9.20558" id="svg_13" cy="145.87933" cx="79.95816" stroke-linecap="null" stroke-linejoin="null" stroke-dasharray="null" stroke-width="0" fill="#d30404" stroke="#000000"/>
  <ellipse opacity="0.2" transform="rotate(-27.906286239624023 44.506008148193395,39.210567474365234) matrix(0.3565277622556629,-0.08575526182925375,-0.39727555848864055,0.49035525423738296,52.52044072991788,-29.196974549546525) " ry="2.55171" rx="6.83087" id="svg_17" cy="168.3891" cx="165.15529" stroke-linecap="null" stroke-linejoin="null" stroke-dasharray="null" stroke-width="0" fill="#ffffff" stroke="#000000"/>
  <polygon stroke-width="0" points="7.979287299605493,4.172899206382433 7.498802337142114,4.002531523073039 7.565552863570336,2.454417567833368 8.0872909159385,1.6679984714547311 8.342994842024925,2.730079035567976 7.979287299605493,4.172899206382433 " fill="#bc0505" transform="rotate(-67.25059509277344 7.920898437499999,2.9204487800598145) " id="svg_9" stroke="#000000"/>
  <ellipse opacity="0.5" transform="rotate(40.4472541809082 5.808188915252687,6.1574363708496085) matrix(0.46444167405257747,0.008836761266366263,-0.17063518039700545,1.5930208033288893,2.9079170227652313,-98.09879551512442) " ry="2.55171" rx="6.83087" cy="65.27794" cx="30.22766" stroke-linecap="null" stroke-linejoin="null" stroke-dasharray="null" stroke-width="0" fill="#ff0000" id="svg_2" stroke="#000000"/>
  <ellipse opacity="0.5" transform="rotate(1.9414578676223755 4.88201522827147,2.3723609447479115) matrix(0.386514087206539,0.00025301282105316463,-0.14200470087231112,0.04561113232522119,2.6337764999032585,0.038990709760624576) " ry="2.55171" rx="6.83087" cy="51.02166" cx="24.56199" stroke-linecap="null" stroke-linejoin="null" stroke-dasharray="null" stroke-width="0" fill="#ff0000" stroke="#000000" id="svg_10"/>
  <ellipse opacity="0.5" transform="rotate(48.36653518676758 11.331969261169432,6.590514659881593) matrix(0.31796724813321897,0.0010433020730031212,-0.11682069412963376,0.18807817212126113,2.2609483724443873,-12.837497862525499) " ry="2.55171" rx="6.83087" cy="102.92952" cx="66.34431" stroke-linecap="null" stroke-linejoin="null" stroke-dasharray="null" stroke-width="0" fill="#ff0000" stroke="#000000" id="svg_11"/>
  <polygon stroke="#000000" opacity="0.55" id="svg_12" stroke-width="0" points="9.176228559687639,4.6973382060068 21.97940621245109,16.428647713792028 41.97442105247526,35.5026181583193 41.52881019601457,35.559701099783915 21.258423388860386,16.520993254230174 9.176228559687639,4.6973382060068 " fill="#ffffff" transform="rotate(-2.3303189277648926 25.57532501220699,20.128519058227585) "/>
 </g>
</svg>